<?xml version="1.0" encoding="utf-8"?>
<svg xmlns="http://www.w3.org/2000/svg" width="42" height="8" version="1.1" viewBox="0 0 42 8">
  <path d="M5.038,3.342H2.53L2.324,4.391h1.413C3.707,6.416,3.277,6.952,2.519,6.952C1.71,6.952,1.3,6.272,1.3,4 s0.41-2.951,1.219-2.951c0.645,0,0.952,0.462,1.167,1.491l1.188-0.319C4.547,0.679,3.8,0,2.519,0C0.974,0,0,0.978,0,4 c0,3.013,0.963,4,2.519,4C4.066,8,5.141,7.105,5.038,3.342z M10.869,4c0-3.023-0.962-4-2.519-4C6.793,0,5.83,0.978,5.83,4c0,3.022,0.963,4,2.519,4 C9.896,8,10.869,7.023,10.869,4z M7.131,4c0-2.303,0.42-2.951,1.219-2.951c0.789,0,1.219,0.648,1.219,2.951 c0,2.303-0.43,2.952-1.219,2.952C7.55,6.951,7.131,6.303,7.131,4z M13.746,5.895h-0.529v1.938h3.892V7.208h-1.749V5.937H14.83v1.272h-1.085V5.895z M15.162,2.914c-1.525,0-2.019,0.49-2.019,1.282c0,0.792,0.493,1.281,2.019,1.281 c1.525,0,2.019-0.49,2.019-1.281C17.181,3.404,16.688,2.914,15.162,2.914z M15.162,4.815c-1.162,0-1.488-0.213-1.488-0.62 c0-0.406,0.327-0.62,1.488-0.62s1.488,0.219,1.488,0.62C16.65,4.597,16.325,4.815,15.162,4.815z M14.223,0.167c-0.642,0-1.006,0.407-1.006,1.105v1.105h3.892V1.751h-1.733V1.318 c0.01-0.365,0.249-0.526,0.612-0.526h1.121V0.167h-1.121c-0.457,0-0.71,0.172-0.882,0.485C14.96,0.349,14.659,0.167,14.223,0.167z M14.846,1.271v0.479h-1.101V1.271c0-0.281,0.192-0.441,0.545-0.441C14.654,0.828,14.846,0.985,14.846,1.271z M23.167,2.54l1.188-0.319C24.027,0.679,23.28,0,22,0c-1.545,0-2.519,0.978-2.519,4c0,3.013,0.963,4,2.519,4 c1.545,0,2.622-0.895,2.519-4.658H22.01l-0.205,1.048h1.413C23.187,6.416,22.757,6.952,22,6.952c-0.809,0-1.219-0.679-1.219-2.952 s0.411-2.951,1.217-2.951C22.645,1.049,22.952,1.512,23.167,2.54z M30.349,4c0-3.023-0.962-4-2.519-4c-1.557,0-2.519,0.978-2.519,4c0,3.022,0.963,4,2.519,4 C29.376,8,30.349,7.023,30.349,4z M26.611,4c0-2.303,0.42-2.951,1.219-2.951c0.788,0,1.219,0.648,1.219,2.951 c0,2.303-0.43,2.951-1.219,2.951C27.031,6.951,26.611,6.303,26.611,4z M31.121,4c0,3.023,0.963,4,2.519,4c1.545,0,2.519-0.978,2.519-4c0-3.022-0.961-4-2.519-4 C32.082,0,31.121,0.977,31.121,4z M34.859,4c0,2.303-0.43,2.952-1.219,2.952c-0.799,0-1.219-0.648-1.219-2.952 c0-2.303,0.42-2.951,1.219-2.951C34.428,1.049,34.859,1.697,34.859,4z M39.215,7.856C40.925,7.856,42,6.93,42,4c-0.01-2.931-1.075-3.856-2.796-3.856h-1.987v7.712H39.215z M38.446,6.808V1.192h0.758c0.881,0,1.485,0.587,1.485,2.808c0.01,2.221-0.614,2.808-1.474,2.808H38.446z" fill="#FFF"/>
</svg>
